<svg xmlns="http://www.w3.org/2000/svg" viewBox="0 0 463.6 123.83"><defs><style>.cls-1{fill:#1d262d;}</style></defs><title>freepik</title><g id="Calque_2" data-name="Calque 2"><g id="Calque_1-2" data-name="Calque 1"><g id="_Groupe_" data-name="&lt;Groupe&gt;"><g id="_Groupe_2" data-name="&lt;Groupe&gt;"><path id="_Tracé_" data-name="&lt;Tracé&gt;" class="cls-1" d="M20.1,30.44A54.81,54.81,0,0,0,12,41L8.66,39.25A4.38,4.38,0,1,0,4.9,44.58a4.53,4.53,0,0,0,1.33-.38l3.28,1.7A53.23,53.23,0,0,0,5.59,58.57l5.43,1A48,48,0,0,1,24,34.29Z"/><path id="_Tracé_2" data-name="&lt;Tracé&gt;" class="cls-1" d="M60,13.71c-1.24,0-2.47,0-3.7.13l-.54-4.56a5.21,5.21,0,1,0-5.47.63l.54,4.54a54.66,54.66,0,0,0-15,4.7l2.37,5A50,50,0,0,1,60,19.22,50.64,50.64,0,0,1,70.7,20.37L71.87,15A56.43,56.43,0,0,0,60,13.71Z"/><path id="_Tracé_3" data-name="&lt;Tracé&gt;" class="cls-1" d="M108,32.23a4.39,4.39,0,1,0-4.92-4.29l-3,2.64A56.35,56.35,0,0,0,89.8,22.3L86.86,27a49.05,49.05,0,0,1,18.63,21.26l5-2.27a53.66,53.66,0,0,0-6.85-11.23l2.93-2.55A4.53,4.53,0,0,0,108,32.23Z"/><path id="_Tracé_4" data-name="&lt;Tracé&gt;" class="cls-1" d="M56,87.91c-2.8.17-5.63.25-8.41.25a117.17,117.17,0,0,1-18-1.3,62.1,62.1,0,0,1-9.23-2.13,45,45,0,0,0,82.4-10,70.37,70.37,0,0,1-17.87,8.16A123.23,123.23,0,0,1,56,87.91Z"/><path id="_Tracé_transparent_" data-name="&lt;Tracé transparent&gt;" class="cls-1" d="M60,24.73c-24.36,0-44.18,19.38-44.18,43.2a42.71,42.71,0,0,0,1,9.17c4.9,3.5,19.67,6.46,38.87,5.31,20.93-1.26,38.5-7,48.49-15.69q-.06-2.13-.33-4.23C101.06,41,82.21,24.73,60,24.73ZM44.29,72.08A13.45,13.45,0,1,1,57.73,58.64,13.46,13.46,0,0,1,44.29,72.08Zm34.43-6.6a9.89,9.89,0,1,1,9.89-9.89A9.9,9.9,0,0,1,78.72,65.48Z"/></g><path id="_Tracé_transparent_2" data-name="&lt;Tracé transparent&gt;" class="cls-1" d="M176.3,38.3a20.52,20.52,0,0,0-10.05-1.72c-4,.5-6.13,2.47-6.13,7.31v6.3h16.19V62.67H160.12v39.64h-14V62.67h-9.74V50.19h9.74V43.73c0-12.21,6.51-20.22,18.66-20.22a28.59,28.59,0,0,1,11.56,2.24Z"/><path id="_Tracé_transparent_3" data-name="&lt;Tracé transparent&gt;" class="cls-1" d="M210.48,62.52a23.08,23.08,0,0,0-3.83-.34c-6.51,0-11,4-11,11.73v28.4h-14V50.19h13.61v5.7c3.28-4.9,8.28-7.1,14.68-7.1a13,13,0,0,1,8,2.45Z"/><path id="_Tracé_transparent_4" data-name="&lt;Tracé transparent&gt;" class="cls-1" d="M266.2,76.17a40.46,40.46,0,0,1-.27,4.73H229c1.5,7.53,6.78,10.82,13.39,10.82a21,21,0,0,0,13.18-5l8.23,9c-5.92,5.43-13.45,7.91-22.21,7.91-16,0-27.06-10.87-27.06-27.27s10.76-27.6,26.35-27.6C255.87,48.79,266.15,59.92,266.2,76.17ZM229,71.33h23.08c-1.29-6.67-5.33-10.44-11.35-10.44C234.14,60.89,230.27,64.87,229,71.33Z"/><path id="_Tracé_transparent_5" data-name="&lt;Tracé transparent&gt;" class="cls-1" d="M321.83,76.17a40.46,40.46,0,0,1-.27,4.73h-37c1.51,7.53,6.78,10.82,13.4,10.82a21.08,21.08,0,0,0,13.18-5l8.23,9c-5.92,5.43-13.45,7.91-22.22,7.91-16,0-27.06-10.87-27.06-27.27s10.76-27.6,26.36-27.6C311.5,48.79,321.77,59.92,321.83,76.17Zm-37.17-4.84h23.07c-1.29-6.67-5.32-10.44-11.35-10.44C289.77,60.89,285.89,64.87,284.66,71.33Z"/><path id="_Tracé_transparent_6" data-name="&lt;Tracé transparent&gt;" class="cls-1" d="M382.48,76.22c0,15.66-10.86,27.44-25.23,27.44-7,0-11.94-2.75-15.33-6.78v27h-14V50.19h13.71v5.75c3.39-4.25,8.39-7.15,15.55-7.15C371.62,48.79,382.48,60.57,382.48,76.22Zm-41.26,0c0,8.23,5.44,14.37,13.4,14.37,8.28,0,13.45-6.41,13.45-14.37s-5.17-14.36-13.45-14.36C346.66,61.86,341.22,68,341.22,76.22Z"/><path id="_Tracé_transparent_7" data-name="&lt;Tracé transparent&gt;" class="cls-1" d="M405,33.13a9,9,0,1,1-9-9A8.91,8.91,0,0,1,405,33.13Zm-1.88,69.18h-14V50.19h14Z"/><path id="_Tracé_transparent_8" data-name="&lt;Tracé transparent&gt;" class="cls-1" d="M426.59,68.75l19.63-18.56h17.21L438.15,74.72l25.45,27.59H446.33L426.59,81.23v21.08h-14V24.85h14Z"/></g></g></g></svg>