<svg xmlns="http://www.w3.org/2000/svg" viewBox="0 0 513.87 86.81"><defs><style>.cls-1{fill:#3f51b5;}.cls-2{isolation:isolate;}</style></defs><title>logoall</title><g id="Calque_2" data-name="Calque 2"><g id="Component_5_1" data-name="Component 5 1"><g id="log"><path id="Path_191" data-name="Path 191" class="cls-1" d="M86.8,0V17.51L17.5,86.81H0V69.41L69.41,0Z"/><path id="Path_192" data-name="Path 192" class="cls-1" d="M86.8,52.42V86.8H52.42Z"/><path id="Path_193" data-name="Path 193" class="cls-1" d="M34.39,0,0,34.39V0Z"/></g><g class="cls-2"><path class="cls-1" d="M147,52.52v7.7H123V54l13.4-21.1H123.22v-7.7h23.5v6.2l-13.4,21.1Z"/><path class="cls-1" d="M180.62,35.22v25h-7.5V57.87a9.39,9.39,0,0,1-7.45,3.05c-6.55,0-11.95-5.75-11.95-13.2s5.4-13.2,11.95-13.2a9.39,9.39,0,0,1,7.45,3V35.22Zm-7.5,12.5a6,6,0,1,0-11.9,0,6,6,0,1,0,11.9,0Z"/><path class="cls-1" d="M215.12,44.87V60.22h-7.5V46c0-3.1-2-4.55-4.35-4.55-2.75,0-4.65,1.6-4.65,5.15V60.22h-7.5v-35h7.5V37.57c1.35-1.85,3.85-3,7.15-3C210.82,34.52,215.12,38.12,215.12,44.87Z"/><path class="cls-1" d="M250.92,35.22v25h-7.5V57.87A9.39,9.39,0,0,1,236,60.92c-6.55,0-11.95-5.75-11.95-13.2s5.4-13.2,11.95-13.2a9.39,9.39,0,0,1,7.45,3V35.22Zm-7.5,12.5a6,6,0,1,0-11.9,0,6,6,0,1,0,11.9,0Z"/><path class="cls-1" d="M287.07,35.22V59c0,8.4-6.55,12-13.2,12-5.2,0-9.55-2-11.85-6l6.4-3.7c.95,1.75,2.4,3.15,5.7,3.15,3.5,0,5.65-1.8,5.65-5.35v-2.3a8.88,8.88,0,0,1-7.3,3.25,12.38,12.38,0,0,1-12.3-12.7,12.38,12.38,0,0,1,12.3-12.7,8.88,8.88,0,0,1,7.3,3.25V35.22Zm-7.3,12c0-3.45-2.5-5.8-6-5.8s-6.05,2.35-6.05,5.8,2.5,5.8,6.05,5.8S279.77,50.67,279.77,47.22Z"/><path class="cls-1" d="M342.32,25.22v35h-8V46.32h-11v13.9h-8v-35h8v13.4h11V25.22Z"/><path class="cls-1" d="M351.82,47.72a13.25,13.25,0,1,1,13.25,13.2A13.1,13.1,0,0,1,351.82,47.72Zm19,0a5.75,5.75,0,1,0-11.5,0,5.75,5.75,0,1,0,11.5,0Z"/><path class="cls-1" d="M403.07,60.22l-8-11v11h-7.5v-35h7.5v21l7.5-11h8.75l-9.1,12.5,9.35,12.5Z"/><path class="cls-1" d="M443.47,35.22v25H436V57.87a9.39,9.39,0,0,1-7.45,3.05c-6.55,0-11.95-5.75-11.95-13.2s5.4-13.2,11.95-13.2a9.39,9.39,0,0,1,7.45,3V35.22ZM436,47.72a6,6,0,1,0-11.9,0,6,6,0,1,0,11.9,0Z"/><path class="cls-1" d="M479.62,35.22V59c0,8.4-6.55,12-13.2,12-5.2,0-9.55-2-11.85-6l6.4-3.7c.95,1.75,2.4,3.15,5.7,3.15,3.5,0,5.65-1.8,5.65-5.35v-2.3a8.88,8.88,0,0,1-7.3,3.25,12.38,12.38,0,0,1-12.3-12.7A12.38,12.38,0,0,1,465,34.52a8.88,8.88,0,0,1,7.3,3.25V35.22Zm-7.3,12c0-3.45-2.5-5.8-6.05-5.8s-6,2.35-6,5.8,2.5,5.8,6,5.8S472.32,50.67,472.32,47.22Z"/><path class="cls-1" d="M513.87,35.22l-8.55,24.25c-2.8,8-7.25,11.1-14.25,10.75v-7c3.5,0,5.15-1.1,6.25-4.15l-9.95-23.85h8.25l5.55,15.3,4.7-15.3Z"/></g></g></g></svg>