<svg xmlns="http://www.w3.org/2000/svg" viewBox="0 0 209.36 275.26"><defs><style>.cls-1{fill:#ffc729;}.cls-2{fill:#fff;}.cls-3,.cls-6{fill:#e8ad1a;}.cls-4,.cls-7,.cls-8{fill:#3e6ada;}.cls-5{fill:none;stroke:#ffc729;stroke-miterlimit:10;stroke-width:3px;}.cls-6{opacity:0.4;}.cls-7{opacity:0.1;}.cls-8{opacity:0.2;}</style></defs><title>Fichier 1</title><g id="Calque_2" data-name="Calque 2"><g id="OBJECTS"><rect class="cls-1" x="66.53" y="211.49" width="91.67" height="24"/><path class="cls-1" d="M198.54,263a5.17,5.17,0,0,0,4.36-5.9l-1.54-10.27a5.19,5.19,0,0,0-10.26,1.54l1.54,10.27A5.17,5.17,0,0,0,198.54,263Z"/><path class="cls-1" d="M164.2,229.81a5.2,5.2,0,0,0,4.23,6l10.23,1.78a5.19,5.19,0,0,0,1.78-10.23l-10.23-1.78A5.19,5.19,0,0,0,164.2,229.81Z"/><path class="cls-1" d="M184,265.5a5.19,5.19,0,0,0,6-4.31l1.63-10.25a5.19,5.19,0,1,0-10.25-1.64l-1.63,10.26A5.18,5.18,0,0,0,184,265.5Z"/><path class="cls-1" d="M180.91,240.41a5.18,5.18,0,0,0-7.2,1.4l-5.81,8.61a5.19,5.19,0,0,0,8.61,5.8l5.8-8.61A5.18,5.18,0,0,0,180.91,240.41Z"/><circle class="cls-2" cx="188.84" cy="236.8" r="14.48" transform="translate(-91.89 350.48) rotate(-73.47)"/><path class="cls-2" d="M165.12,143.89c13.37,2.09,23.15,7,29.17,14.81,22.33,28.86,1.18,78.51.26,80.61l-9.17-4,4.59,2-4.59-2c.2-.46,19.71-46.33,1-70.51-12.54-16.19-50-12.34-63.41-9.49l-2.08-9.78a149.87,149.87,0,0,1,28.81-2.78A103.3,103.3,0,0,1,165.12,143.89Z"/><path class="cls-1" d="M190.54,212.4l13.18,2a3,3,0,0,0,.92-5.93l-13.17-2.05a3,3,0,1,0-.93,5.93Z"/><path class="cls-1" d="M192.76,198.78,206,200.42a3,3,0,1,0,.74-5.95l-13.23-1.64a3,3,0,1,0-.74,5.95Z"/><path class="cls-1" d="M192.82,184.34,206,182.19a3,3,0,1,0-1-5.92l-13.16,2.15a3,3,0,1,0,1,5.92Z"/><path class="cls-1" d="M188.58,172.41,200.24,166a3,3,0,1,0-2.9-5.25l-11.67,6.45a3,3,0,0,0,2.91,5.25Z"/><path class="cls-1" d="M180,161.06l8.78-10a3,3,0,1,0-4.51-3.95l-8.79,10a3,3,0,0,0,4.52,3.95Z"/><rect class="cls-3" x="66.53" y="211.49" width="91.67" height="12.71"/><rect class="cls-1" x="97.72" y="95.49" width="29.27" height="70.67"/><rect class="cls-3" x="111.84" y="95.49" width="15.16" height="70.67"/><rect class="cls-2" x="77.79" y="12.79" width="78.14" height="103.11" rx="37.13" ry="37.13" transform="translate(36.7 170.98) rotate(-81.9)"/><rect class="cls-4" x="90.79" y="25.79" width="52.14" height="77.11" rx="24.13" ry="24.13" transform="translate(36.7 170.98) rotate(-81.9)"/><path class="cls-2" d="M108.74,54.7a6.67,6.67,0,1,1-5.66-7.54A6.67,6.67,0,0,1,108.74,54.7Z"/><path class="cls-2" d="M138.44,58.93a6.67,6.67,0,1,1-5.66-7.54A6.67,6.67,0,0,1,138.44,58.93Z"/><path class="cls-1" d="M121.48,83.45l-9.24-1.31a4,4,0,0,1-3.4-4.53h0a4,4,0,0,1,4.53-3.39l9.24,1.31a4,4,0,0,1,3.4,4.52h0A4,4,0,0,1,121.48,83.45Z"/><path class="cls-5" d="M66,47.61A53.82,53.82,0,0,1,126.67,2h0a53.81,53.81,0,0,1,45.57,60.69l-.88,6.19a16.74,16.74,0,0,1-18.94,14.22l-36.64-5.22"/><path class="cls-1" d="M58.59,71.14h0a8,8,0,0,1-6.79-9l1.78-12.54a8,8,0,0,1,9.05-6.8h0a8,8,0,0,1,6.79,9L67.64,64.34A8,8,0,0,1,58.59,71.14Z"/><path class="cls-6" d="M105,201.45h8.88a11.69,11.69,0,0,0,11.69-11.69V175.91a11.69,11.69,0,0,0-11.69-11.69H99.18C103.77,169.68,113.86,184.55,105,201.45Z"/><path class="cls-2" d="M140,132.54H84.7a33.91,33.91,0,0,0-33.91,33.9v52.82H173.93V166.44A33.9,33.9,0,0,0,140,132.54Z"/><path class="cls-4" d="M99.85,156.15a1.44,1.44,0,0,1-1.06-.44,1.43,1.43,0,0,1-.43-1.05v-3.41a1.43,1.43,0,0,1,.43-1.06,1.46,1.46,0,0,1,1.06-.43,1.43,1.43,0,0,1,1.05.43,1.46,1.46,0,0,1,.43,1.06V152h-1v-.73a.53.53,0,0,0-.16-.39.54.54,0,0,0-.38-.15.52.52,0,0,0-.38.15.53.53,0,0,0-.16.39v3.42a.55.55,0,0,0,.54.54.51.51,0,0,0,.38-.16.49.49,0,0,0,.16-.38v-.86h1v.87a1.43,1.43,0,0,1-.43,1.06A1.47,1.47,0,0,1,99.85,156.15Z"/><path class="cls-4" d="M103.39,153.43v2.64h-.94v-6.24h.94v2.65h1.13v-2.65h.94v6.24h-.94v-2.64Z"/><path class="cls-4" d="M107.81,154.64l-.23,1.43h-1l1.06-6.24H109l1,6.24h-1l-.22-1.43Zm.49-3.38-.35,2.46h.7Z"/><path class="cls-4" d="M111.26,150.77h-1v-.94h2.93v.94h-1v5.3h-.94Z"/><path class="cls-4" d="M114.3,156.07v-6.24h1.41a1.76,1.76,0,0,1,1,.3,1.32,1.32,0,0,1,.55.77,2.15,2.15,0,0,1,.09.66,1.45,1.45,0,0,1-.34,1,1.08,1.08,0,0,1-.32.24,1.17,1.17,0,0,1,.53.47,1.8,1.8,0,0,1,.21.62,2.74,2.74,0,0,1,0,.43,2.05,2.05,0,0,1-.23,1,1.29,1.29,0,0,1-.49.52,1.31,1.31,0,0,1-.71.22Zm1-3.69h.4a.57.57,0,0,0,.58-.43,1.07,1.07,0,0,0,.06-.39.82.82,0,0,0-.19-.59.61.61,0,0,0-.45-.18h-.4Zm0,2.76h.4a.67.67,0,0,0,.66-.49,1.45,1.45,0,0,0-.14-1.15.62.62,0,0,0-.52-.22h-.4Z"/><path class="cls-4" d="M120.1,149.76a1.5,1.5,0,0,1,1.5,1.49v3.4a1.44,1.44,0,0,1-.44,1.06,1.46,1.46,0,0,1-1.06.44,1.49,1.49,0,0,1-1.48-1.5v-3.4a1.4,1.4,0,0,1,.44-1.05A1.43,1.43,0,0,1,120.1,149.76Zm.51,1.48a.52.52,0,0,0-.15-.38.54.54,0,0,0-.92.38v3.41a.51.51,0,0,0,.16.38.56.56,0,0,0,.76,0,.54.54,0,0,0,.15-.38Z"/><path class="cls-4" d="M123.59,150.77h-1v-.94h2.93v.94h-1v5.3h-.94Z"/><path class="cls-1" d="M126.59,159.22H96.69A11.68,11.68,0,0,0,85,170.91v13.85a11.68,11.68,0,0,0,11.68,11.69H98v11.37l11.38-11.37h17.18a11.68,11.68,0,0,0,11.68-11.69V170.91A11.68,11.68,0,0,0,126.59,159.22Z"/><path class="cls-2" d="M131.6,177.43a4,4,0,1,1-4-4A4,4,0,0,1,131.6,177.43Z"/><path class="cls-2" d="M115.79,177.43a4,4,0,1,1-4-4A4,4,0,0,1,115.79,177.43Z"/><path class="cls-2" d="M101,177.43a4,4,0,1,1-4-4A4,4,0,0,1,101,177.43Z"/><path class="cls-7" d="M173.93,219.26V166.44a33.9,33.9,0,0,0-33.9-33.9H113.5c9.18,4.93,35.45,22.23,35.87,59,.18,16.13.16,16.27.07,27.77Z"/><path class="cls-2" d="M130.36,109.49h-36a2.34,2.34,0,0,0,0,4.67h36a2.34,2.34,0,1,0,0-4.67Z"/><path class="cls-2" d="M130.36,119.49h-36a2.34,2.34,0,0,0,0,4.67h36a2.34,2.34,0,1,0,0-4.67Z"/><path class="cls-8" d="M130.36,109.49H116v4.67h14.33a2.34,2.34,0,1,0,0-4.67Z"/><path class="cls-8" d="M130.36,119.49h-14v4.67h14a2.34,2.34,0,1,0,0-4.67Z"/><path class="cls-2" d="M95.7,228.54H129a33.9,33.9,0,0,1,33.9,33.9v12.82a0,0,0,0,1,0,0H61.79a0,0,0,0,1,0,0V262.44A33.9,33.9,0,0,1,95.7,228.54Z" transform="translate(224.72 503.8) rotate(180)"/><path class="cls-7" d="M121.75,275.26H129a33.91,33.91,0,0,0,33.9-33.91V228.54H140.58C142.21,240.12,141.45,260.24,121.75,275.26Z"/><path class="cls-1" d="M3.64,39.38a5.2,5.2,0,0,0-3.4,6.51l3.1,9.91a5.19,5.19,0,0,0,9.91-3.1l-3.1-9.91A5.2,5.2,0,0,0,3.64,39.38Z"/><path class="cls-1" d="M42.68,66.9a5.19,5.19,0,0,0-5.1-5.28l-10.39-.18A5.19,5.19,0,0,0,27,71.82L37.39,72A5.19,5.19,0,0,0,42.68,66.9Z"/><path class="cls-1" d="M17.61,34.68a5.19,5.19,0,0,0-5.21,5.17l0,10.39a5.2,5.2,0,0,0,10.39,0l0-10.39A5.19,5.19,0,0,0,17.61,34.68Z"/><path class="cls-1" d="M24.54,59a5.19,5.19,0,0,0,6.9-2.49l4.42-9.4a5.19,5.19,0,0,0-9.4-4.42L22,52.09A5.19,5.19,0,0,0,24.54,59Z"/><circle class="cls-2" cx="17.26" cy="63.78" r="14.48" transform="translate(-28.93 16.53) rotate(-29.2)"/><path class="cls-2" d="M55,151.93c-13.54,0-24-3.39-31.1-10.14C-2.62,116.71,10.65,64.4,11.23,62.18l9.67,2.53-4.84-1.27L20.9,64.7c-.12.49-12.34,48.82,9.86,69.82,14.88,14.08,51.33,4.51,64.12-.37l3.56,9.35a152.22,152.22,0,0,1-28,7.18A103.91,103.91,0,0,1,55,151.93Z"/><path class="cls-1" d="M19.33,88.16H6a3,3,0,0,0,0,6H19.33a3,3,0,0,0,0-6Z"/><path class="cls-1" d="M19.23,102l-13.33.42a3,3,0,0,0,.19,6L19.42,108a3,3,0,0,0-.19-6Z"/><path class="cls-1" d="M21.4,116.23,8.73,120.38a3,3,0,0,0,1.86,5.7l12.67-4.14a3,3,0,0,0-1.86-5.71Z"/><path class="cls-1" d="M27.43,127.37l-10.54,8.17a3,3,0,0,0,3.67,4.74l10.54-8.17a3,3,0,1,0-3.67-4.74Z"/><path class="cls-1" d="M37.7,137.25l-7.14,11.27a3,3,0,1,0,5.07,3.21l7.13-11.26a3,3,0,1,0-5.06-3.22Z"/></g></g></svg>